<?xml version="1.0" encoding="UTF-8"?>
<svg id="Layer_2" data-name="Layer 2" xmlns="http://www.w3.org/2000/svg" viewBox="0 0 147.89 110.83">
  <defs>
    <style>
      .cls-1 {
        fill: #fff;
      }

      .cls-2 {
        fill: #405c78;
      }
    </style>
  </defs>
  <g id="Layer_1-2" data-name="Layer 1">
    <g>
      <path d="M125.52,67.41l22.32-20.19-5.85-7.35c-4.12-5.17-9.32-9.17-15.47-11.9-4.6-2.04-9.67-3.3-15.12-3.77l6.19-8.87h-23l-.04-15.33h-30.65l-16.42,27.73L30.58,0H0v84.29h36.8v-7.72l.84,1.38h3.49l-5.19,9.36h29.89c2.19,4.28,5.03,8.11,8.49,11.4.13.13.27.24.41.37v.54h.6c3.9,3.48,8.46,6.22,13.58,8.14,5.43,2.04,11.35,3.07,17.61,3.07,7.34,0,14.08-1.36,20.04-4.05,6.1-2.75,11.27-6.71,15.37-11.78l5.95-7.36-22.37-20.24Z"/>
      <polygon class="cls-2" points="84.75 74.29 68.04 74.29 67.87 40.18 51.32 67.95 43.25 67.95 26.8 41.12 26.8 74.29 10 74.29 10 10 24.97 10 47.59 47.15 69.6 10 84.57 10 84.75 74.29"/>
      <polyline class="cls-1" points="79.6 25.33 98.42 25.33 72.2 62.89 85.29 62.89 85.29 51.97 102.46 51.97 102.46 62.89 112.01 62.89 112.01 77.31 102.46 77.31 102.46 89.62 84.74 89.62 84.74 77.31 50.76 77.31"/>
      <path class="cls-2" d="M106.52,100.83c-5.08,0-9.78-.81-14.1-2.43-4.32-1.62-8.05-3.93-11.2-6.93-3.15-3-5.62-6.53-7.39-10.61-1.78-4.07-2.66-8.55-2.66-13.45s.89-9.38,2.66-13.45c1.77-4.07,4.24-7.61,7.39-10.61,3.15-3,6.89-5.31,11.2-6.93,4.32-1.62,9.01-2.43,14.1-2.43,5.94,0,11.25,1.04,15.93,3.12,4.68,2.08,8.59,5.08,11.71,9l-11.57,10.47c-2.08-2.45-4.36-4.32-6.84-5.6-2.48-1.29-5.25-1.93-8.31-1.93-2.63,0-5.05.43-7.25,1.29-2.2.86-4.09,2.1-5.65,3.72-1.56,1.62-2.79,3.57-3.67,5.83-.89,2.27-1.33,4.78-1.33,7.53s.44,5.27,1.33,7.53c.89,2.27,2.11,4.21,3.67,5.83,1.56,1.62,3.44,2.86,5.65,3.72,2.2.86,4.62,1.29,7.25,1.29,3.06,0,5.83-.64,8.31-1.93s4.76-3.15,6.84-5.6l11.57,10.47c-3.12,3.86-7.02,6.84-11.71,8.95-4.68,2.11-10,3.17-15.93,3.17Z"/>
      <polyline class="cls-1" points="72.2 62.89 85.29 62.89 85.29 51.97 102.46 51.97 102.46 62.89 112.01 62.89 112.01 77.31 102.46 77.31 102.46 89.62 84.74 89.62 84.74 77.31 50.76 77.31"/>
    </g>
  </g>
</svg>