<?xml version="1.0" encoding="UTF-8"?>
<svg width="32px" height="32px"  id="Layer_1" xmlns="http://www.w3.org/2000/svg" version="1.1" viewBox="0 0 110 110">
  <!-- Generator: Adobe Illustrator 29.5.1, SVG Export Plug-In . SVG Version: 2.1.0 Build 141)  -->
  <defs>
    <style>
      .st0 {
        fill-rule: evenodd;
      }
    </style>
  </defs>
  <path class="st0" d="M28.7,19.4l-14.3,81.2h3.6l14.3-81.2h-3.6ZM81.3,19.4h-3.6l14.3,81.2h3.6l-14.3-81.2Z" fill="currentColor"/>
  <polygon class="st0" points="88.4 100.6 59.5 100.6 56.5 94.9 65.2 83.5 56.5 71.9 59.6 58 56.9 52.8 63.3 45.4 55 36 58.8 25.5 52.5 19.4 74 19.4 88.4 100.6" fill="currentColor"/>
  <path class="st0" d="M50.2,93.7l2.9,6.9h-31.5l14.3-81.2h12.7c1.7,2.8,3.4,5.6,5.1,8.5l-2.8,9.9,5.6,7.3-7.2,7.3,4.4,4.8-5.6,15.5,9.7,11.6-7.7,9.5Z" fill="currentColor"/>
</svg>