<?xml version="1.0" encoding="UTF-8"?>
<svg id="Layer_1" xmlns="http://www.w3.org/2000/svg" version="1.1" viewBox="0 0 110 90" width="32px" height="32px" >
  <!-- Converted to explicit fill="currentColor" -->
  
  <polygon fill="currentColor" fill-rule="evenodd" points="95.6 100.6 92 100.6 84.8 59.8 88.4 59.8 95.6 100.6"/>
  <polygon fill="currentColor" fill-rule="evenodd" points="25.2 59.8 18 100.6 14.4 100.6 21.6 59.8 25.2 59.8"/>
  <polygon fill="currentColor" fill-rule="evenodd" points="85.6 43.7 82 43.7 77.7 19.4 81.3 19.4 85.6 43.7"/>
  <polygon fill="currentColor" fill-rule="evenodd" points="32.3 19.4 28 43.7 24.4 43.7 28.7 19.4 32.3 19.4"/>
  
  <g>
    <rect fill="currentColor" x="9.5" y="40.5" width="6.3" height="3.1"/>
    <rect fill="currentColor" x="9.5" y="60" width="6.3" height="13.7"/>
    <rect fill="currentColor" x="93.9" y="60" width="6.3" height="13.7"/>
    
    <polygon fill="currentColor" fill-rule="evenodd" points="100.2 40.5 100.2 43.5 100 43.7 93.9 43.7 93.9 40.7 94.1 40.5 100.2 40.5"/>
    <polygon fill="currentColor" fill-rule="evenodd" points="15.1 46.5 7.2 54.4 7.2 46.5 15.1 46.5"/>
    <polygon fill="currentColor" fill-rule="evenodd" points="31.5 46.5 20.9 57 11.9 57 22.4 46.5 31.5 46.5"/>
    <polygon fill="currentColor" fill-rule="evenodd" points="47.9 46.5 37.4 57 28.3 57 38.9 46.5 47.9 46.5"/>
    <polygon fill="currentColor" fill-rule="evenodd" points="64.3 46.5 53.8 57 44.7 57 55.3 46.5 64.3 46.5"/>
    <polygon fill="currentColor" fill-rule="evenodd" points="80.8 46.5 70.2 57 61.2 57 71.7 46.5 80.8 46.5"/>
    <polygon fill="currentColor" fill-rule="evenodd" points="97.2 46.5 86.6 57 77.6 57 88.1 46.5 97.2 46.5"/>
    <polygon fill="currentColor" fill-rule="evenodd" points="103.8 47.2 103.8 57 94 57 103.8 47.2"/>
  </g>
  
  <polygon fill="currentColor" fill-rule="evenodd" points="78.3 43.7 31.6 43.7 35.9 19.4 74 19.4 78.3 43.7"/>
  <polygon fill="currentColor" fill-rule="evenodd" points="88.4 100.6 21.6 100.6 28.8 59.8 81.2 59.8 88.4 100.6"/>
</svg>
