<?xml version="1.0" encoding="UTF-8"?>
<svg id="Layer_2" data-name="Layer 2" xmlns="http://www.w3.org/2000/svg" viewBox="0 0 800 600.66">
  <defs>
    <style>
      .cls-1 {
        fill-rule: evenodd;
      }
    </style>
  </defs>
  <g id="Layer_1-2" data-name="Layer 1">
    <path d="M285.71,104.55c0,57.76-42.62,104.55-95.24,104.55s-95.24-46.79-95.24-104.55S137.86,0,190.48,0s95.24,46.79,95.24,104.55Z"/>
    <path d="M0,362.45c0-74.16,126.9-111.52,190.48-111.52s190.48,37.36,190.48,111.52v201.22c0,20.43-16.56,37-37,37H37c-20.43,0-37-16.56-37-37v-201.22Z"/>
    <path d="M704.76,104.55c0,57.76-42.62,104.55-95.24,104.55s-95.24-46.79-95.24-104.55S556.9,0,609.52,0s95.24,46.79,95.24,104.55Z"/>
    <path d="M476.19,83.64c0,46.21-34.1,83.64-76.19,83.64s-76.19-37.43-76.19-83.64S357.9,0,400,0s76.19,37.43,76.19,83.64Z"/>
    <path d="M419.05,362.45c0-74.16,126.9-111.52,190.48-111.52s190.48,37.36,190.48,111.52v201.22c0,20.43-16.56,37-37,37h-306.96c-20.43,0-37-16.56-37-37v-201.22Z"/>
    <path class="cls-1" d="M475.71,225.19c5.96,2.64,6.03,11.03.12,13.79-.12.06-.24.11-.36.17-22.31,10.47-44.83,24.6-62.33,43.51-2.48,2.69-4.9,5.51-7.22,8.47-3.01,3.84-8.83,3.84-11.84,0-2.32-2.96-4.74-5.78-7.22-8.47-17.5-18.91-40.03-33.05-62.33-43.51-.12-.06-.24-.11-.36-.17-5.91-2.76-5.84-11.15.12-13.79,26.05-11.56,55.47-17.35,75.71-17.35s49.66,5.8,75.71,17.35Z"/>
  </g>
</svg>