<?xml version="1.0" encoding="UTF-8"?>
<svg id="Layer_1" data-name="Layer 1" xmlns="http://www.w3.org/2000/svg" viewBox="0 0 800 800">
  <path d="M634.37,333.33l-137.87-35.85c-15.17-4.14-24.82-19.3-20.68-35.85,4.14-15.17,19.3-24.82,35.85-20.68l71.69,19.3c-23.44-30.33-53.77-55.15-90.99-71.69-56.52-24.82-118.56-26.19-176.47-4.14-56.52,22.06-102.02,66.18-126.84,121.32-6.89,15.17-23.44,20.68-38.6,15.17-15.17-6.89-20.68-23.44-15.17-38.6,30.33-70.31,86.86-124.08,158.55-153.03,71.69-27.57,150.27-26.19,220.59,4.14,46.87,20.68,85.48,52.39,115.81,92.37l17.92-67.55c4.14-15.17,19.3-24.82,35.85-20.68,15.17,4.14,24.82,19.3,20.68,35.85l-35.85,137.87c-4.14,19.3-13.79,27.57-34.47,22.06h0ZM95.32,625.61l35.85-136.49s5.51-27.57,33.09-20.68h0l137.87,35.85c15.17,4.14,24.82,19.3,20.68,35.85-4.14,15.17-19.3,24.82-35.85,20.68l-71.69-19.3c60.66,79.96,168.2,113.05,266.08,74.45,56.52-22.06,102.02-66.18,126.84-121.32,6.89-15.17,23.44-20.68,38.6-15.17,15.17,6.89,20.68,23.44,15.17,38.6-30.33,70.31-86.86,124.08-158.55,153.03-34.47,13.79-68.93,19.3-104.78,19.3-90.99,0-176.47-42.74-231.61-117.19l-17.92,67.55c-2.76,12.41-15.17,22.06-27.57,22.06-2.76,0-5.51,0-6.89-1.38-13.79-5.51-23.44-20.68-19.3-35.85Z"/>
    <animateTransform 
      attributeName="transform" 
      attributeType="XML" 
      type="rotate" 
      from="0 0 0" 
      to="360 0 0" 
      dur="2s" 
      repeatCount="indefinite"/>
</svg>